<?xml version="1.0" encoding="UTF-8"?><svg id="Layer_1" xmlns="http://www.w3.org/2000/svg" viewBox="0 0 831.32 130.8"><defs><style>.cls-1{fill:none;stroke:#fff;stroke-width:3.8px;}.cls-2{fill:#f15722;}.cls-2,.cls-3,.cls-4,.cls-5,.cls-6,.cls-7{stroke-width:0px;}.cls-3{fill:#88c540;}.cls-4{fill:#fff;}.cls-5{fill:#f7ec1a;}.cls-6{fill:#ffcc05;}.cls-7{fill:#45c7f0;}</style></defs><polygon id="M" class="cls-4" points="31.92 62.93 64.51 95.71 107.42 52.96 107.42 129.5 128.56 129.5 128.56 1.4 64.51 65.45 31.92 33.15 31.92 62.93"/><polygon id="I" class="cls-4" points="173.01 22.54 151.71 1.4 151.71 129.5 173.01 108.04 173.01 22.54"/><path id="L" class="cls-4" d="M215,108.04l-21.3,21.46h85.35v-21.46h-64.05ZM193.7,1.4v99.12l21.3-21.46V1.4h-21.3Z"/><polygon id="H" class="cls-4" points="520.66 1.35 520.66 54.67 456.61 54.67 435.31 76.13 435.31 129.45 456.61 129.45 456.61 76.13 520.66 76.13 520.66 129.45 541.95 129.45 541.95 1.35 520.66 1.35"/><path id="A" class="cls-4" d="M604.08,86.86l18.89-37.63,18.73,37.63h24.02L622.97,1.35l-64.05,128.1h23.7l10.89-21.46,10.57-21.14ZM676.29,108.15h-23.7l10.57,21.3h23.86l-10.73-21.3Z"/><path id="X" class="cls-4" d="M731.4,1.35h-27.38l50.28,64.05,13.45-17.29L731.4,1.35ZM704.02,129.45h27.38l36.35-46.76-13.45-17.29-50.28,64.05ZM831.32,1.35h-27.06l-36.51,46.76,13.61,17.29L831.32,1.35ZM767.75,82.69l36.51,46.76h27.06l-49.96-64.05-13.61,17.29Z"/><rect id="Green" class="cls-3" y="2.84" width="22.62" height="17.62" rx="2" ry="2"/><rect id="Red" class="cls-2" y="30.34" width="22.62" height="17.62" rx="2" ry="2"/><rect id="Yellow" class="cls-5" y="56.59" width="22.62" height="17.62" rx="2" ry="2"/><rect id="Blue" class="cls-7" y="84.09" width="22.62" height="17.62" rx="2" ry="2"/><rect id="Orange" class="cls-6" y="111.59" width="22.62" height="17.62" rx="2" ry="2"/><circle id="Outer_Ring" class="cls-4" cx="354.56" cy="65.4" r="14.82"/><circle id="Inner_Circle" class="cls-1" cx="354.56" cy="65.4" r="63.5"/></svg>